<svg xmlns="http://www.w3.org/2000/svg" viewBox="0 0 53.5 19.53"><defs><style>.cls-1{fill:#333;}.cls-2{fill:#f37021;}</style></defs><title>Asset 2</title><g id="Layer_2" data-name="Layer 2"><g id="Layer_1-2" data-name="Layer 1"><path class="cls-1" d="M27,10.16a2.92,2.92,0,0,1-.22,1.18,2.47,2.47,0,0,1-.62.86,2.64,2.64,0,0,1-.93.52,3.7,3.7,0,0,1-1.18.18H20.28V3.53h3.66a3.15,3.15,0,0,1,2.17.71,2.49,2.49,0,0,1,.78,1.94,2,2,0,0,1-.35,1.21,2.24,2.24,0,0,1-.69.69,2.83,2.83,0,0,1,.79.71A2.21,2.21,0,0,1,27,10.16Zm-2.09-3.9a.92.92,0,0,0-.3-.72,1.21,1.21,0,0,0-.84-.27H22.23v2h1.56A1.21,1.21,0,0,0,24.63,7,.89.89,0,0,0,24.93,6.26Zm.13,3.84a1.07,1.07,0,0,0-.28-.77A1.11,1.11,0,0,0,23.9,9H22.23v2.12H23.9a1.14,1.14,0,0,0,.88-.3A1.05,1.05,0,0,0,25.06,10.1Z"/><path class="cls-1" d="M34.2,12.9l-.52-1.62H30.45c-.1.27-.19.54-.29.82s-.19.54-.28.8h-2l3.43-9.37H32.8l3.47,9.37ZM32.1,6.55,31,9.61h2.11Z"/><path class="cls-1" d="M44,10a3.36,3.36,0,0,1-1.18,2.23,3.55,3.55,0,0,1-2.28.75,3.38,3.38,0,0,1-1.41-.28A3.47,3.47,0,0,1,38.05,12a2.44,2.44,0,0,1-.56-.76,3.08,3.08,0,0,1-.27-.86,5.9,5.9,0,0,1-.1-1c0-.35,0-.72,0-1.14s0-.77,0-1.11a6.14,6.14,0,0,1,.1-1,3.15,3.15,0,0,1,.27-.87,2.44,2.44,0,0,1,.56-.76,3.32,3.32,0,0,1,2.53-1.06,3.47,3.47,0,0,1,2.28.78,3.62,3.62,0,0,1,1.2,2.3h-2a2,2,0,0,0-.5-.94,1.32,1.32,0,0,0-1-.39,1.35,1.35,0,0,0-1.1.49,2.11,2.11,0,0,0-.21.31,1.28,1.28,0,0,0-.13.44c0,.18,0,.42-.07.7s0,.66,0,1.1,0,.8,0,1.09,0,.52.07.71a1.51,1.51,0,0,0,.13.45,1.41,1.41,0,0,0,.21.31,1.5,1.5,0,0,0,.47.34,1.61,1.61,0,0,0,.63.13,1.35,1.35,0,0,0,1-.38,2.07,2.07,0,0,0,.5-.95H44Z"/><path class="cls-1" d="M51.22,12.9,48.83,8.76,47.69,10.1v2.8H45.75V3.53h1.94V7.39l3.19-3.86h2.43L50.14,7.26,53.5,12.9Z"/><polygon class="cls-2" points="9.76 0 0 9.67 9.76 19.53 11.62 17.67 3.72 9.67 11.62 1.86 9.76 0"/></g></g></svg>