<svg xmlns="http://www.w3.org/2000/svg" xmlns:xlink="http://www.w3.org/1999/xlink" viewBox="0 0 686.86 717.78"><defs><style>.cls-1{fill:none;}.cls-2{fill:#e6e6e6;}.cls-3{clip-path:url(#clip-path);}.cls-4{fill:#f2f2f2;}.cls-5{fill:#ed6e21;}</style><clipPath id="clip-path" transform="translate(0 87.24)"><rect class="cls-1" x="302.13" y="1.55" width="219.06" height="240.41"/></clipPath></defs><title>bg_1</title><g id="Layer_2" data-name="Layer 2"><g id="Layer_1-2" data-name="Layer 1"><rect class="cls-2" y="87.24" width="521.19" height="658.53"/><g class="cls-3"><path class="cls-4" d="M458.67,193.3a15.22,15.22,0,0,0-15.22,15.21h30.43A15.21,15.21,0,0,0,458.67,193.3Z" transform="translate(0 87.24)"/><path class="cls-4" d="M489.09,223.73a15.22,15.22,0,0,0,15.22-15.22H473.88A15.21,15.21,0,0,0,489.09,223.73Z" transform="translate(0 87.24)"/><path class="cls-4" d="M519.52,193.3a15.21,15.21,0,0,0-15.21,15.21h30.42A15.21,15.21,0,0,0,519.52,193.3Z" transform="translate(0 87.24)"/><path class="cls-4" d="M549.94,223.73a15.21,15.21,0,0,0,15.22-15.22H534.73A15.21,15.21,0,0,0,549.94,223.73Z" transform="translate(0 87.24)"/><path class="cls-4" d="M458.67,162.13a15.22,15.22,0,0,0-15.22,15.21h30.43A15.21,15.21,0,0,0,458.67,162.13Z" transform="translate(0 87.24)"/><path class="cls-4" d="M489.09,192.55a15.22,15.22,0,0,0,15.22-15.21H473.88A15.21,15.21,0,0,0,489.09,192.55Z" transform="translate(0 87.24)"/><path class="cls-4" d="M519.52,162.13a15.21,15.21,0,0,0-15.21,15.21h30.42A15.21,15.21,0,0,0,519.52,162.13Z" transform="translate(0 87.24)"/><path class="cls-4" d="M549.94,192.55a15.21,15.21,0,0,0,15.22-15.21H534.73A15.21,15.21,0,0,0,549.94,192.55Z" transform="translate(0 87.24)"/><path class="cls-4" d="M458.67,131a15.22,15.22,0,0,0-15.22,15.21h30.43A15.21,15.21,0,0,0,458.67,131Z" transform="translate(0 87.24)"/><path class="cls-4" d="M489.09,161.38a15.22,15.22,0,0,0,15.22-15.21H473.88A15.21,15.21,0,0,0,489.09,161.38Z" transform="translate(0 87.24)"/><path class="cls-4" d="M519.52,131a15.21,15.21,0,0,0-15.21,15.21h30.42A15.21,15.21,0,0,0,519.52,131Z" transform="translate(0 87.24)"/><path class="cls-4" d="M549.94,161.38a15.21,15.21,0,0,0,15.22-15.21H534.73A15.21,15.21,0,0,0,549.94,161.38Z" transform="translate(0 87.24)"/><path class="cls-4" d="M458.67,99.79A15.22,15.22,0,0,0,443.45,115h30.43A15.21,15.21,0,0,0,458.67,99.79Z" transform="translate(0 87.24)"/><path class="cls-4" d="M489.09,130.21A15.22,15.22,0,0,0,504.31,115H473.88A15.21,15.21,0,0,0,489.09,130.21Z" transform="translate(0 87.24)"/><path class="cls-4" d="M519.52,99.79A15.21,15.21,0,0,0,504.31,115h30.42A15.21,15.21,0,0,0,519.52,99.79Z" transform="translate(0 87.24)"/><path class="cls-4" d="M549.94,130.21A15.21,15.21,0,0,0,565.16,115H534.73A15.21,15.21,0,0,0,549.94,130.21Z" transform="translate(0 87.24)"/><path class="cls-4" d="M458.67,68.61a15.22,15.22,0,0,0-15.22,15.22h30.43A15.21,15.21,0,0,0,458.67,68.61Z" transform="translate(0 87.24)"/><path class="cls-4" d="M489.09,99a15.22,15.22,0,0,0,15.22-15.21H473.88A15.21,15.21,0,0,0,489.09,99Z" transform="translate(0 87.24)"/><path class="cls-4" d="M519.52,68.61a15.21,15.21,0,0,0-15.21,15.22h30.42A15.21,15.21,0,0,0,519.52,68.61Z" transform="translate(0 87.24)"/><path class="cls-4" d="M549.94,99a15.21,15.21,0,0,0,15.22-15.21H534.73A15.21,15.21,0,0,0,549.94,99Z" transform="translate(0 87.24)"/><path class="cls-5" d="M458.67,37.44a15.22,15.22,0,0,0-15.22,15.22h30.43A15.21,15.21,0,0,0,458.67,37.44Z" transform="translate(0 87.24)"/><path class="cls-4" d="M489.09,67.87a15.22,15.22,0,0,0,15.22-15.21H473.88A15.21,15.21,0,0,0,489.09,67.87Z" transform="translate(0 87.24)"/><path class="cls-4" d="M519.52,37.44a15.21,15.21,0,0,0-15.21,15.22h30.42A15.21,15.21,0,0,0,519.52,37.44Z" transform="translate(0 87.24)"/><path class="cls-4" d="M549.94,67.87a15.21,15.21,0,0,0,15.22-15.21H534.73A15.21,15.21,0,0,0,549.94,67.87Z" transform="translate(0 87.24)"/><path class="cls-4" d="M458.67,6.27a15.22,15.22,0,0,0-15.22,15.21h30.43A15.21,15.21,0,0,0,458.67,6.27Z" transform="translate(0 87.24)"/><path class="cls-4" d="M489.09,36.7a15.22,15.22,0,0,0,15.22-15.22H473.88A15.21,15.21,0,0,0,489.09,36.7Z" transform="translate(0 87.24)"/><path class="cls-4" d="M519.52,6.27a15.21,15.21,0,0,0-15.21,15.21h30.42A15.21,15.21,0,0,0,519.52,6.27Z" transform="translate(0 87.24)"/><path class="cls-4" d="M549.94,36.7a15.21,15.21,0,0,0,15.22-15.22H534.73A15.21,15.21,0,0,0,549.94,36.7Z" transform="translate(0 87.24)"/><path class="cls-4" d="M337,99.79A15.21,15.21,0,0,0,321.75,115h30.43A15.21,15.21,0,0,0,337,99.79Z" transform="translate(0 87.24)"/><path class="cls-4" d="M367.39,130.21A15.21,15.21,0,0,0,382.6,115H352.18A15.21,15.21,0,0,0,367.39,130.21Z" transform="translate(0 87.24)"/><path class="cls-4" d="M397.82,99.79A15.21,15.21,0,0,0,382.6,115H413A15.21,15.21,0,0,0,397.82,99.79Z" transform="translate(0 87.24)"/><path class="cls-4" d="M428.24,130.21A15.21,15.21,0,0,0,443.45,115H413A15.21,15.21,0,0,0,428.24,130.21Z" transform="translate(0 87.24)"/><path class="cls-4" d="M337,68.61a15.21,15.21,0,0,0-15.21,15.22h30.43A15.21,15.21,0,0,0,337,68.61Z" transform="translate(0 87.24)"/><path class="cls-4" d="M367.39,99A15.21,15.21,0,0,0,382.6,83.83H352.18A15.21,15.21,0,0,0,367.39,99Z" transform="translate(0 87.24)"/><path class="cls-4" d="M397.82,68.61A15.21,15.21,0,0,0,382.6,83.83H413A15.21,15.21,0,0,0,397.82,68.61Z" transform="translate(0 87.24)"/><path class="cls-4" d="M428.24,99a15.21,15.21,0,0,0,15.21-15.21H413A15.21,15.21,0,0,0,428.24,99Z" transform="translate(0 87.24)"/><path class="cls-4" d="M337,37.44a15.21,15.21,0,0,0-15.21,15.22h30.43A15.21,15.21,0,0,0,337,37.44Z" transform="translate(0 87.24)"/><path class="cls-4" d="M367.39,67.87A15.21,15.21,0,0,0,382.6,52.66H352.18A15.21,15.21,0,0,0,367.39,67.87Z" transform="translate(0 87.24)"/><path class="cls-4" d="M397.82,37.44A15.21,15.21,0,0,0,382.6,52.66H413A15.21,15.21,0,0,0,397.82,37.44Z" transform="translate(0 87.24)"/><path class="cls-4" d="M428.24,67.87a15.21,15.21,0,0,0,15.21-15.21H413A15.21,15.21,0,0,0,428.24,67.87Z" transform="translate(0 87.24)"/><path class="cls-4" d="M337,6.27a15.21,15.21,0,0,0-15.21,15.21h30.43A15.21,15.21,0,0,0,337,6.27Z" transform="translate(0 87.24)"/><path class="cls-4" d="M367.39,36.7A15.21,15.21,0,0,0,382.6,21.48H352.18A15.21,15.21,0,0,0,367.39,36.7Z" transform="translate(0 87.24)"/><path class="cls-4" d="M397.82,6.27A15.21,15.21,0,0,0,382.6,21.48H413A15.21,15.21,0,0,0,397.82,6.27Z" transform="translate(0 87.24)"/><path class="cls-4" d="M428.24,36.7a15.21,15.21,0,0,0,15.21-15.22H413A15.21,15.21,0,0,0,428.24,36.7Z" transform="translate(0 87.24)"/><path class="cls-4" d="M580.37,99.79A15.21,15.21,0,0,0,565.16,115h30.42A15.21,15.21,0,0,0,580.37,99.79Z" transform="translate(0 87.24)"/><path class="cls-4" d="M610.8,130.21A15.21,15.21,0,0,0,626,115H595.58A15.21,15.21,0,0,0,610.8,130.21Z" transform="translate(0 87.24)"/><path class="cls-4" d="M641.22,99.79A15.21,15.21,0,0,0,626,115h30.43A15.22,15.22,0,0,0,641.22,99.79Z" transform="translate(0 87.24)"/><path class="cls-4" d="M671.65,130.21A15.21,15.21,0,0,0,686.86,115H656.44A15.21,15.21,0,0,0,671.65,130.21Z" transform="translate(0 87.24)"/><path class="cls-4" d="M580.37,68.61a15.21,15.21,0,0,0-15.21,15.22h30.42A15.21,15.21,0,0,0,580.37,68.61Z" transform="translate(0 87.24)"/><path class="cls-4" d="M610.8,99A15.21,15.21,0,0,0,626,83.83H595.58A15.21,15.21,0,0,0,610.8,99Z" transform="translate(0 87.24)"/><path class="cls-4" d="M641.22,68.61A15.21,15.21,0,0,0,626,83.83h30.43A15.22,15.22,0,0,0,641.22,68.61Z" transform="translate(0 87.24)"/><path class="cls-4" d="M671.65,99a15.21,15.21,0,0,0,15.21-15.21H656.44A15.21,15.21,0,0,0,671.65,99Z" transform="translate(0 87.24)"/><path class="cls-4" d="M580.37,37.44a15.21,15.21,0,0,0-15.21,15.22h30.42A15.21,15.21,0,0,0,580.37,37.44Z" transform="translate(0 87.24)"/><path class="cls-4" d="M610.8,67.87A15.21,15.21,0,0,0,626,52.66H595.58A15.21,15.21,0,0,0,610.8,67.87Z" transform="translate(0 87.24)"/><path class="cls-4" d="M641.22,37.44A15.21,15.21,0,0,0,626,52.66h30.43A15.22,15.22,0,0,0,641.22,37.44Z" transform="translate(0 87.24)"/><path class="cls-4" d="M671.65,67.87a15.21,15.21,0,0,0,15.21-15.21H656.44A15.21,15.21,0,0,0,671.65,67.87Z" transform="translate(0 87.24)"/><path class="cls-4" d="M580.37,6.27a15.21,15.21,0,0,0-15.21,15.21h30.42A15.21,15.21,0,0,0,580.37,6.27Z" transform="translate(0 87.24)"/><path class="cls-4" d="M610.8,36.7A15.21,15.21,0,0,0,626,21.48H595.58A15.21,15.21,0,0,0,610.8,36.7Z" transform="translate(0 87.24)"/><path class="cls-4" d="M641.22,6.27A15.21,15.21,0,0,0,626,21.48h30.43A15.22,15.22,0,0,0,641.22,6.27Z" transform="translate(0 87.24)"/><path class="cls-4" d="M671.65,36.7a15.21,15.21,0,0,0,15.21-15.22H656.44A15.21,15.21,0,0,0,671.65,36.7Z" transform="translate(0 87.24)"/><path class="cls-4" d="M458.67-24.9A15.22,15.22,0,0,0,443.45-9.69h30.43A15.21,15.21,0,0,0,458.67-24.9Z" transform="translate(0 87.24)"/><path class="cls-4" d="M489.09,5.52A15.22,15.22,0,0,0,504.31-9.69H473.88A15.21,15.21,0,0,0,489.09,5.52Z" transform="translate(0 87.24)"/><path class="cls-4" d="M519.52-24.9A15.21,15.21,0,0,0,504.31-9.69h30.42A15.21,15.21,0,0,0,519.52-24.9Z" transform="translate(0 87.24)"/><path class="cls-4" d="M549.94,5.52A15.21,15.21,0,0,0,565.16-9.69H534.73A15.21,15.21,0,0,0,549.94,5.52Z" transform="translate(0 87.24)"/><path class="cls-4" d="M458.67-56.07a15.22,15.22,0,0,0-15.22,15.21h30.43A15.21,15.21,0,0,0,458.67-56.07Z" transform="translate(0 87.24)"/><path class="cls-4" d="M489.09-25.65a15.22,15.22,0,0,0,15.22-15.21H473.88A15.21,15.21,0,0,0,489.09-25.65Z" transform="translate(0 87.24)"/><path class="cls-4" d="M519.52-56.07a15.21,15.21,0,0,0-15.21,15.21h30.42A15.21,15.21,0,0,0,519.52-56.07Z" transform="translate(0 87.24)"/><path class="cls-4" d="M549.94-25.65a15.21,15.21,0,0,0,15.22-15.21H534.73A15.21,15.21,0,0,0,549.94-25.65Z" transform="translate(0 87.24)"/><path class="cls-4" d="M458.67-87.24A15.22,15.22,0,0,0,443.45-72h30.43A15.21,15.21,0,0,0,458.67-87.24Z" transform="translate(0 87.24)"/><path class="cls-4" d="M489.09-56.82A15.22,15.22,0,0,0,504.31-72H473.88A15.21,15.21,0,0,0,489.09-56.82Z" transform="translate(0 87.24)"/><path class="cls-4" d="M519.52-87.24A15.21,15.21,0,0,0,504.31-72h30.42A15.21,15.21,0,0,0,519.52-87.24Z" transform="translate(0 87.24)"/><path class="cls-4" d="M549.94-56.82A15.21,15.21,0,0,0,565.16-72H534.73A15.21,15.21,0,0,0,549.94-56.82Z" transform="translate(0 87.24)"/></g></g></g></svg>